<svg width="1440" height="407" viewBox="0 0 1440 407" fill="none" xmlns="http://www.w3.org/2000/svg">
<path d="M1439.5 0C881.053 92.8803 566.395 105.67 0 0V372.5C539.95 419.279 856.001 417.449 1439.5 372.5V0Z" fill="#0F0E0E"/>
<path d="M276.834 203.81C273.594 203.81 270.789 203.03 268.419 201.47C266.049 199.91 264.219 197.75 262.929 194.99C261.669 192.2 261.039 188.99 261.039 185.36C261.039 181.79 261.669 178.64 262.929 175.91C264.219 173.15 266.049 170.99 268.419 169.43C270.789 167.84 273.594 167.045 276.834 167.045C280.074 167.045 282.864 167.84 285.204 169.43C287.574 170.99 289.389 173.15 290.649 175.91C291.909 178.67 292.539 181.82 292.539 185.36C292.539 188.99 291.909 192.2 290.649 194.99C289.389 197.75 287.574 199.91 285.204 201.47C282.864 203.03 280.074 203.81 276.834 203.81ZM277.959 198.725C279.639 198.575 281.109 197.99 282.369 196.97C283.659 195.95 284.664 194.555 285.384 192.785C286.104 190.985 286.464 188.9 286.464 186.53C286.464 186.2 286.449 185.87 286.419 185.54C286.419 185.21 286.404 184.88 286.374 184.55C286.164 181.94 285.594 179.705 284.664 177.845C283.764 175.985 282.609 174.575 281.199 173.615C279.789 172.625 278.229 172.13 276.519 172.13C276.399 172.13 276.264 172.13 276.114 172.13C275.994 172.13 275.859 172.145 275.709 172.175C274.059 172.295 272.589 172.865 271.299 173.885C270.009 174.905 268.989 176.3 268.239 178.07C267.489 179.81 267.114 181.865 267.114 184.235C267.114 184.535 267.114 184.85 267.114 185.18C267.144 185.51 267.174 185.84 267.204 186.17C267.414 188.81 267.984 191.075 268.914 192.965C269.844 194.825 271.029 196.265 272.469 197.285C273.909 198.275 275.499 198.77 277.239 198.77C277.359 198.77 277.479 198.77 277.599 198.77C277.719 198.74 277.839 198.725 277.959 198.725ZM302.921 203.585L292.166 178.52L299.006 177.305L305.486 196.475L312.551 177.26L317.096 178.7L308.186 203L302.921 203.585ZM339.537 198.59C338.667 199.76 337.737 200.705 336.747 201.425C335.787 202.145 334.677 202.67 333.417 203C332.157 203.33 330.612 203.495 328.782 203.495C326.172 203.495 323.937 202.925 322.077 201.785C320.217 200.615 318.792 199.055 317.802 197.105C316.812 195.125 316.317 192.92 316.317 190.49C316.317 188.03 316.827 185.825 317.847 183.875C318.867 181.895 320.292 180.335 322.122 179.195C323.982 178.055 326.142 177.485 328.602 177.485C331.002 177.485 333.057 178.04 334.767 179.15C336.507 180.23 337.842 181.79 338.772 183.83C339.702 185.84 340.167 188.24 340.167 191.03V191.795H323.877L322.887 188.285L333.957 187.385C333.867 185.795 333.417 184.505 332.607 183.515C331.827 182.495 330.567 181.985 328.827 181.985C326.817 181.985 325.152 182.735 323.832 184.235C322.542 185.705 321.897 187.805 321.897 190.535C321.897 192.485 322.257 194.105 322.977 195.395C323.727 196.655 324.657 197.6 325.767 198.23C326.907 198.83 328.047 199.13 329.187 199.13C331.107 199.13 332.817 198.815 334.317 198.185C335.847 197.525 337.047 196.64 337.917 195.53L339.537 198.59ZM343.421 203.63L342.521 177.26L348.911 178.025V180.59C349.481 179.87 350.051 179.285 350.621 178.835C351.221 178.385 351.971 178.055 352.871 177.845C353.771 177.635 354.956 177.515 356.426 177.485L357.461 182.975C356.471 182.795 355.571 182.705 354.761 182.705C351.731 182.705 349.781 183.92 348.911 186.35V203L343.421 203.63ZM372.653 203L371.708 198.68C375.668 195.05 378.983 191.945 381.653 189.365C384.323 186.785 386.318 184.52 387.638 182.57C388.988 180.59 389.663 178.73 389.663 176.99C389.663 175.34 389.183 174.05 388.223 173.12C387.293 172.19 385.898 171.725 384.038 171.725C382.388 171.725 380.858 172.145 379.448 172.985C378.068 173.825 376.973 175.025 376.163 176.585L372.833 174.875C373.223 173.435 373.928 172.13 374.948 170.96C375.968 169.76 377.273 168.815 378.863 168.125C380.483 167.405 382.358 167.045 384.488 167.045C388.388 167.045 391.313 167.915 393.263 169.655C395.213 171.365 396.188 173.675 396.188 176.585C396.188 178.445 395.783 180.215 394.973 181.895C394.163 183.545 392.963 185.21 391.373 186.89C389.813 188.54 387.878 190.295 385.568 192.155C383.258 194.015 380.603 196.1 377.603 198.41L396.728 197.195V203H372.653ZM412.317 203.81C409.887 203.81 407.667 203.075 405.657 201.605C403.647 200.135 402.042 198.02 400.842 195.26C399.672 192.5 399.087 189.215 399.087 185.405C399.087 182.795 399.432 180.38 400.122 178.16C400.812 175.94 401.757 174.005 402.957 172.355C404.157 170.675 405.552 169.37 407.142 168.44C408.762 167.51 410.487 167.045 412.317 167.045C414.147 167.045 415.857 167.51 417.447 168.44C419.067 169.34 420.477 170.615 421.677 172.265C422.907 173.915 423.867 175.865 424.557 178.115C425.247 180.335 425.592 182.765 425.592 185.405C425.592 188.165 425.247 190.67 424.557 192.92C423.867 195.17 422.907 197.12 421.677 198.77C420.477 200.39 419.067 201.635 417.447 202.505C415.857 203.375 414.147 203.81 412.317 203.81ZM412.317 199.085C413.787 199.085 415.047 198.5 416.097 197.33C417.147 196.13 417.957 194.51 418.527 192.47C419.097 190.4 419.382 188.045 419.382 185.405C419.382 182.915 419.097 180.65 418.527 178.61C417.957 176.54 417.147 174.89 416.097 173.66C415.047 172.43 413.787 171.815 412.317 171.815C410.847 171.815 409.587 172.43 408.537 173.66C407.487 174.86 406.677 176.495 406.107 178.565C405.567 180.605 405.297 182.885 405.297 185.405C405.297 188.045 405.567 190.4 406.107 192.47C406.677 194.51 407.487 196.13 408.537 197.33C409.587 198.5 410.847 199.085 412.317 199.085ZM440.686 203.81C438.256 203.81 436.036 203.075 434.026 201.605C432.016 200.135 430.411 198.02 429.211 195.26C428.041 192.5 427.456 189.215 427.456 185.405C427.456 182.795 427.801 180.38 428.491 178.16C429.181 175.94 430.126 174.005 431.326 172.355C432.526 170.675 433.921 169.37 435.511 168.44C437.131 167.51 438.856 167.045 440.686 167.045C442.516 167.045 444.226 167.51 445.816 168.44C447.436 169.34 448.846 170.615 450.046 172.265C451.276 173.915 452.236 175.865 452.926 178.115C453.616 180.335 453.961 182.765 453.961 185.405C453.961 188.165 453.616 190.67 452.926 192.92C452.236 195.17 451.276 197.12 450.046 198.77C448.846 200.39 447.436 201.635 445.816 202.505C444.226 203.375 442.516 203.81 440.686 203.81ZM440.686 199.085C442.156 199.085 443.416 198.5 444.466 197.33C445.516 196.13 446.326 194.51 446.896 192.47C447.466 190.4 447.751 188.045 447.751 185.405C447.751 182.915 447.466 180.65 446.896 178.61C446.326 176.54 445.516 174.89 444.466 173.66C443.416 172.43 442.156 171.815 440.686 171.815C439.216 171.815 437.956 172.43 436.906 173.66C435.856 174.86 435.046 176.495 434.476 178.565C433.936 180.605 433.666 182.885 433.666 185.405C433.666 188.045 433.936 190.4 434.476 192.47C435.046 194.51 435.856 196.13 436.906 197.33C437.956 198.5 439.216 199.085 440.686 199.085ZM458.886 207.32C459.486 206.75 460.041 206.06 460.551 205.25C461.061 204.47 461.376 203.69 461.496 202.91C460.386 202.91 459.456 202.61 458.706 202.01C457.956 201.41 457.581 200.57 457.581 199.49C457.581 198.41 457.926 197.525 458.616 196.835C459.306 196.145 460.191 195.8 461.271 195.8C462.351 195.8 463.221 196.16 463.881 196.88C464.571 197.6 464.916 198.5 464.916 199.58C464.916 200.57 464.721 201.635 464.331 202.775C463.941 203.885 463.401 204.935 462.711 205.925C462.021 206.915 461.211 207.71 460.281 208.31L458.886 207.32ZM481.868 203.81C479.438 203.81 477.218 203.075 475.208 201.605C473.198 200.135 471.593 198.02 470.393 195.26C469.223 192.5 468.638 189.215 468.638 185.405C468.638 182.795 468.983 180.38 469.673 178.16C470.363 175.94 471.308 174.005 472.508 172.355C473.708 170.675 475.103 169.37 476.693 168.44C478.313 167.51 480.038 167.045 481.868 167.045C483.698 167.045 485.408 167.51 486.998 168.44C488.618 169.34 490.028 170.615 491.228 172.265C492.458 173.915 493.418 175.865 494.108 178.115C494.798 180.335 495.143 182.765 495.143 185.405C495.143 188.165 494.798 190.67 494.108 192.92C493.418 195.17 492.458 197.12 491.228 198.77C490.028 200.39 488.618 201.635 486.998 202.505C485.408 203.375 483.698 203.81 481.868 203.81ZM481.868 199.085C483.338 199.085 484.598 198.5 485.648 197.33C486.698 196.13 487.508 194.51 488.078 192.47C488.648 190.4 488.933 188.045 488.933 185.405C488.933 182.915 488.648 180.65 488.078 178.61C487.508 176.54 486.698 174.89 485.648 173.66C484.598 172.43 483.338 171.815 481.868 171.815C480.398 171.815 479.138 172.43 478.088 173.66C477.038 174.86 476.228 176.495 475.658 178.565C475.118 180.605 474.848 182.885 474.848 185.405C474.848 188.045 475.118 190.4 475.658 192.47C476.228 194.51 477.038 196.13 478.088 197.33C479.138 198.5 480.398 199.085 481.868 199.085ZM510.238 203.81C507.808 203.81 505.588 203.075 503.578 201.605C501.568 200.135 499.963 198.02 498.763 195.26C497.593 192.5 497.008 189.215 497.008 185.405C497.008 182.795 497.353 180.38 498.043 178.16C498.733 175.94 499.678 174.005 500.878 172.355C502.078 170.675 503.473 169.37 505.063 168.44C506.683 167.51 508.408 167.045 510.238 167.045C512.068 167.045 513.778 167.51 515.368 168.44C516.988 169.34 518.398 170.615 519.598 172.265C520.828 173.915 521.788 175.865 522.478 178.115C523.168 180.335 523.513 182.765 523.513 185.405C523.513 188.165 523.168 190.67 522.478 192.92C521.788 195.17 520.828 197.12 519.598 198.77C518.398 200.39 516.988 201.635 515.368 202.505C513.778 203.375 512.068 203.81 510.238 203.81ZM510.238 199.085C511.708 199.085 512.968 198.5 514.018 197.33C515.068 196.13 515.878 194.51 516.448 192.47C517.018 190.4 517.303 188.045 517.303 185.405C517.303 182.915 517.018 180.65 516.448 178.61C515.878 176.54 515.068 174.89 514.018 173.66C512.968 172.43 511.708 171.815 510.238 171.815C508.768 171.815 507.508 172.43 506.458 173.66C505.408 174.86 504.598 176.495 504.028 178.565C503.488 180.605 503.218 182.885 503.218 185.405C503.218 188.045 503.488 190.4 504.028 192.47C504.598 194.51 505.408 196.13 506.458 197.33C507.508 198.5 508.768 199.085 510.238 199.085ZM538.607 203.81C536.177 203.81 533.957 203.075 531.947 201.605C529.937 200.135 528.332 198.02 527.132 195.26C525.962 192.5 525.377 189.215 525.377 185.405C525.377 182.795 525.722 180.38 526.412 178.16C527.102 175.94 528.047 174.005 529.247 172.355C530.447 170.675 531.842 169.37 533.432 168.44C535.052 167.51 536.777 167.045 538.607 167.045C540.437 167.045 542.147 167.51 543.737 168.44C545.357 169.34 546.767 170.615 547.967 172.265C549.197 173.915 550.157 175.865 550.847 178.115C551.537 180.335 551.882 182.765 551.882 185.405C551.882 188.165 551.537 190.67 550.847 192.92C550.157 195.17 549.197 197.12 547.967 198.77C546.767 200.39 545.357 201.635 543.737 202.505C542.147 203.375 540.437 203.81 538.607 203.81ZM538.607 199.085C540.077 199.085 541.337 198.5 542.387 197.33C543.437 196.13 544.247 194.51 544.817 192.47C545.387 190.4 545.672 188.045 545.672 185.405C545.672 182.915 545.387 180.65 544.817 178.61C544.247 176.54 543.437 174.89 542.387 173.66C541.337 172.43 540.077 171.815 538.607 171.815C537.137 171.815 535.877 172.43 534.827 173.66C533.777 174.86 532.967 176.495 532.397 178.565C531.857 180.605 531.587 182.885 531.587 185.405C531.587 188.045 531.857 190.4 532.397 192.47C532.967 194.51 533.777 196.13 534.827 197.33C535.877 198.5 537.137 199.085 538.607 199.085ZM575.244 170.69C575.244 171.74 574.869 172.64 574.119 173.39C573.369 174.14 572.469 174.515 571.419 174.515C570.369 174.515 569.469 174.14 568.719 173.39C567.969 172.64 567.594 171.74 567.594 170.69C567.594 169.64 567.969 168.74 568.719 167.99C569.469 167.24 570.369 166.865 571.419 166.865C572.469 166.865 573.369 167.24 574.119 167.99C574.869 168.74 575.244 169.64 575.244 170.69ZM562.599 208.22C564.579 207.98 566.154 207.29 567.324 206.15C568.524 205.01 569.124 203.57 569.124 201.83V201.56L568.224 177.26L574.614 178.025V203.09C574.614 206 573.624 208.175 571.644 209.615C569.694 211.055 567.114 211.85 563.904 212L562.599 208.22ZM589.768 203.495C587.158 203.495 584.893 202.97 582.973 201.92C581.083 200.84 579.613 199.325 578.563 197.375C577.513 195.425 576.988 193.145 576.988 190.535C576.988 187.895 577.513 185.6 578.563 183.65C579.613 181.7 581.083 180.185 582.973 179.105C584.893 178.025 587.158 177.485 589.768 177.485C592.408 177.485 594.673 178.025 596.563 179.105C598.483 180.185 599.953 181.7 600.973 183.65C601.993 185.6 602.503 187.895 602.503 190.535C602.503 193.145 601.993 195.425 600.973 197.375C599.953 199.325 598.483 200.84 596.563 201.92C594.673 202.97 592.408 203.495 589.768 203.495ZM590.488 199.355C592.378 199.205 593.848 198.41 594.898 196.97C595.948 195.5 596.473 193.625 596.473 191.345C596.473 191.105 596.473 190.88 596.473 190.67C596.473 190.43 596.458 190.19 596.428 189.95C596.218 187.37 595.498 185.345 594.268 183.875C593.068 182.405 591.538 181.67 589.678 181.67C589.558 181.67 589.453 181.685 589.363 181.715C589.273 181.715 589.168 181.715 589.048 181.715C587.218 181.835 585.748 182.63 584.638 184.1C583.558 185.57 583.018 187.46 583.018 189.77C583.018 189.98 583.018 190.205 583.018 190.445C583.018 190.655 583.033 190.88 583.063 191.12C583.273 193.67 584.008 195.695 585.268 197.195C586.528 198.665 588.073 199.4 589.903 199.4C589.993 199.4 590.083 199.4 590.173 199.4C590.293 199.37 590.398 199.355 590.488 199.355ZM605.762 203.45L604.862 167L611.252 167.9V180.455C611.792 179.525 612.692 178.805 613.952 178.295C615.212 177.755 616.607 177.485 618.137 177.485C621.437 177.485 624.077 178.595 626.057 180.815C628.037 183.005 629.027 186.23 629.027 190.49C629.027 194.78 628.022 198.02 626.012 200.21C624.002 202.4 621.392 203.495 618.182 203.495C616.532 203.495 615.002 203.195 613.592 202.595C612.212 201.965 611.222 201.14 610.622 200.12L610.172 202.415L605.762 203.45ZM611.117 195.8C611.597 196.76 612.302 197.57 613.232 198.23C614.162 198.89 615.287 199.22 616.607 199.22C617.747 199.22 618.812 198.95 619.802 198.41C620.822 197.84 621.647 196.925 622.277 195.665C622.907 194.375 623.222 192.65 623.222 190.49C623.222 188.36 622.922 186.68 622.322 185.45C621.722 184.19 620.912 183.29 619.892 182.75C618.902 182.21 617.792 181.94 616.562 181.94C615.572 181.94 614.657 182.195 613.817 182.705C613.007 183.185 612.347 183.845 611.837 184.685C611.357 185.525 611.117 186.485 611.117 187.565V195.8ZM661.793 184.64C660.923 183.8 659.708 183.11 658.148 182.57C656.588 182.03 655.043 181.76 653.513 181.76C652.013 181.76 650.948 182.015 650.318 182.525C649.688 183.035 649.373 183.635 649.373 184.325C649.373 184.985 649.748 185.57 650.498 186.08C651.278 186.59 652.643 187.04 654.593 187.43C657.983 188.09 660.458 189.125 662.018 190.535C663.608 191.915 664.403 193.745 664.403 196.025C664.403 198.425 663.488 200.27 661.658 201.56C659.858 202.85 657.188 203.495 653.648 203.495C652.148 203.495 650.648 203.21 649.148 202.64C647.678 202.04 646.358 201.32 645.188 200.48C644.048 199.61 643.178 198.8 642.578 198.05L644.783 195.125C645.353 195.725 646.163 196.325 647.213 196.925C648.293 197.525 649.433 198.02 650.633 198.41C651.863 198.8 652.943 198.995 653.873 198.995C655.403 198.995 656.513 198.755 657.203 198.275C657.923 197.795 658.283 197.12 658.283 196.25C658.283 195.29 657.773 194.51 656.753 193.91C655.763 193.31 654.203 192.785 652.073 192.335C648.983 191.705 646.763 190.73 645.413 189.41C644.063 188.09 643.388 186.515 643.388 184.685C643.388 182.615 644.273 180.905 646.043 179.555C647.813 178.175 650.333 177.485 653.603 177.485C655.133 177.485 656.573 177.695 657.923 178.115C659.303 178.505 660.488 179.015 661.478 179.645C662.498 180.275 663.233 180.905 663.683 181.535L661.793 184.64ZM688.461 198.59C687.591 199.76 686.661 200.705 685.671 201.425C684.711 202.145 683.601 202.67 682.341 203C681.081 203.33 679.536 203.495 677.706 203.495C675.096 203.495 672.861 202.925 671.001 201.785C669.141 200.615 667.716 199.055 666.726 197.105C665.736 195.125 665.241 192.92 665.241 190.49C665.241 188.03 665.751 185.825 666.771 183.875C667.791 181.895 669.216 180.335 671.046 179.195C672.906 178.055 675.066 177.485 677.526 177.485C679.926 177.485 681.981 178.04 683.691 179.15C685.431 180.23 686.766 181.79 687.696 183.83C688.626 185.84 689.091 188.24 689.091 191.03V191.795H672.801L671.811 188.285L682.881 187.385C682.791 185.795 682.341 184.505 681.531 183.515C680.751 182.495 679.491 181.985 677.751 181.985C675.741 181.985 674.076 182.735 672.756 184.235C671.466 185.705 670.821 187.805 670.821 190.535C670.821 192.485 671.181 194.105 671.901 195.395C672.651 196.655 673.581 197.6 674.691 198.23C675.831 198.83 676.971 199.13 678.111 199.13C680.031 199.13 681.741 198.815 683.241 198.185C684.771 197.525 685.971 196.64 686.841 195.53L688.461 198.59ZM713.315 198.59C712.445 199.76 711.515 200.705 710.525 201.425C709.565 202.145 708.455 202.67 707.195 203C705.935 203.33 704.39 203.495 702.56 203.495C699.95 203.495 697.715 202.925 695.855 201.785C693.995 200.615 692.57 199.055 691.58 197.105C690.59 195.125 690.095 192.92 690.095 190.49C690.095 188.03 690.605 185.825 691.625 183.875C692.645 181.895 694.07 180.335 695.9 179.195C697.76 178.055 699.92 177.485 702.38 177.485C704.78 177.485 706.835 178.04 708.545 179.15C710.285 180.23 711.62 181.79 712.55 183.83C713.48 185.84 713.945 188.24 713.945 191.03V191.795H697.655L696.665 188.285L707.735 187.385C707.645 185.795 707.195 184.505 706.385 183.515C705.605 182.495 704.345 181.985 702.605 181.985C700.595 181.985 698.93 182.735 697.61 184.235C696.32 185.705 695.675 187.805 695.675 190.535C695.675 192.485 696.035 194.105 696.755 195.395C697.505 196.655 698.435 197.6 699.545 198.23C700.685 198.83 701.825 199.13 702.965 199.13C704.885 199.13 706.595 198.815 708.095 198.185C709.625 197.525 710.825 196.64 711.695 195.53L713.315 198.59ZM732.858 203.585L724.308 191.705L722.598 193.325V203L717.378 203.63L716.478 167L722.598 167.9V188.375L731.283 177.26L737.988 178.655L726.963 189.185L739.068 202.37L732.858 203.585ZM761.352 198.59C760.482 199.76 759.552 200.705 758.562 201.425C757.602 202.145 756.492 202.67 755.232 203C753.972 203.33 752.427 203.495 750.597 203.495C747.987 203.495 745.752 202.925 743.892 201.785C742.032 200.615 740.607 199.055 739.617 197.105C738.627 195.125 738.132 192.92 738.132 190.49C738.132 188.03 738.642 185.825 739.662 183.875C740.682 181.895 742.107 180.335 743.937 179.195C745.797 178.055 747.957 177.485 750.417 177.485C752.817 177.485 754.872 178.04 756.582 179.15C758.322 180.23 759.657 181.79 760.587 183.83C761.517 185.84 761.982 188.24 761.982 191.03V191.795H745.692L744.702 188.285L755.772 187.385C755.682 185.795 755.232 184.505 754.422 183.515C753.642 182.495 752.382 181.985 750.642 181.985C748.632 181.985 746.967 182.735 745.647 184.235C744.357 185.705 743.712 187.805 743.712 190.535C743.712 192.485 744.072 194.105 744.792 195.395C745.542 196.655 746.472 197.6 747.582 198.23C748.722 198.83 749.862 199.13 751.002 199.13C752.922 199.13 754.632 198.815 756.132 198.185C757.662 197.525 758.862 196.64 759.732 195.53L761.352 198.59ZM765.236 203.63L764.336 177.26L770.726 178.025V180.59C771.296 179.87 771.866 179.285 772.436 178.835C773.036 178.385 773.786 178.055 774.686 177.845C775.586 177.635 776.771 177.515 778.241 177.485L779.276 182.975C778.286 182.795 777.386 182.705 776.576 182.705C773.546 182.705 771.596 183.92 770.726 186.35V203L765.236 203.63ZM798.215 184.64C797.345 183.8 796.13 183.11 794.57 182.57C793.01 182.03 791.465 181.76 789.935 181.76C788.435 181.76 787.37 182.015 786.74 182.525C786.11 183.035 785.795 183.635 785.795 184.325C785.795 184.985 786.17 185.57 786.92 186.08C787.7 186.59 789.065 187.04 791.015 187.43C794.405 188.09 796.88 189.125 798.44 190.535C800.03 191.915 800.825 193.745 800.825 196.025C800.825 198.425 799.91 200.27 798.08 201.56C796.28 202.85 793.61 203.495 790.07 203.495C788.57 203.495 787.07 203.21 785.57 202.64C784.1 202.04 782.78 201.32 781.61 200.48C780.47 199.61 779.6 198.8 779 198.05L781.205 195.125C781.775 195.725 782.585 196.325 783.635 196.925C784.715 197.525 785.855 198.02 787.055 198.41C788.285 198.8 789.365 198.995 790.295 198.995C791.825 198.995 792.935 198.755 793.625 198.275C794.345 197.795 794.705 197.12 794.705 196.25C794.705 195.29 794.195 194.51 793.175 193.91C792.185 193.31 790.625 192.785 788.495 192.335C785.405 191.705 783.185 190.73 781.835 189.41C780.485 188.09 779.81 186.515 779.81 184.685C779.81 182.615 780.695 180.905 782.465 179.555C784.235 178.175 786.755 177.485 790.025 177.485C791.555 177.485 792.995 177.695 794.345 178.115C795.725 178.505 796.91 179.015 797.9 179.645C798.92 180.275 799.655 180.905 800.105 181.535L798.215 184.64ZM827.436 203.495C823.956 203.495 821.436 202.805 819.876 201.425C818.316 200.045 817.536 198.05 817.536 195.44V182.21H814.116L813.216 178.745L817.536 178.295V170.195L823.881 171.095L823.656 177.665L828.156 177.215V182.21H823.476L823.026 194.63V195.08C823.026 196.55 823.401 197.72 824.151 198.59C824.931 199.43 826.326 199.85 828.336 199.85L827.436 203.495ZM831.604 203.63L830.704 177.26L837.094 178.025V180.59C837.664 179.87 838.234 179.285 838.804 178.835C839.404 178.385 840.154 178.055 841.054 177.845C841.954 177.635 843.139 177.515 844.609 177.485L845.644 182.975C844.654 182.795 843.754 182.705 842.944 182.705C839.914 182.705 837.964 183.92 837.094 186.35V203L831.604 203.63ZM868.273 203.45C866.443 202.46 865.258 201.185 864.718 199.625C864.298 200.435 863.638 201.125 862.738 201.695C861.838 202.265 860.803 202.7 859.633 203C858.493 203.33 857.323 203.495 856.123 203.495C853.663 203.495 851.698 202.7 850.228 201.11C848.788 199.49 847.993 197.45 847.843 194.99L846.943 177.26L853.333 178.025V193.955C853.333 195.485 853.738 196.64 854.548 197.42C855.358 198.2 856.453 198.59 857.833 198.59C859.123 198.59 860.293 198.245 861.343 197.555C862.423 196.865 863.158 195.86 863.548 194.54V177.26L869.938 178.025L869.173 194.99V195.26C869.173 196.37 869.458 197.525 870.028 198.725C870.628 199.925 871.483 201.035 872.593 202.055L868.273 203.45ZM891.239 184.64C890.369 183.8 889.154 183.11 887.594 182.57C886.034 182.03 884.489 181.76 882.959 181.76C881.459 181.76 880.394 182.015 879.764 182.525C879.134 183.035 878.819 183.635 878.819 184.325C878.819 184.985 879.194 185.57 879.944 186.08C880.724 186.59 882.089 187.04 884.039 187.43C887.429 188.09 889.904 189.125 891.464 190.535C893.054 191.915 893.849 193.745 893.849 196.025C893.849 198.425 892.934 200.27 891.104 201.56C889.304 202.85 886.634 203.495 883.094 203.495C881.594 203.495 880.094 203.21 878.594 202.64C877.124 202.04 875.804 201.32 874.634 200.48C873.494 199.61 872.624 198.8 872.024 198.05L874.229 195.125C874.799 195.725 875.609 196.325 876.659 196.925C877.739 197.525 878.879 198.02 880.079 198.41C881.309 198.8 882.389 198.995 883.319 198.995C884.849 198.995 885.959 198.755 886.649 198.275C887.369 197.795 887.729 197.12 887.729 196.25C887.729 195.29 887.219 194.51 886.199 193.91C885.209 193.31 883.649 192.785 881.519 192.335C878.429 191.705 876.209 190.73 874.859 189.41C873.509 188.09 872.834 186.515 872.834 184.685C872.834 182.615 873.719 180.905 875.489 179.555C877.259 178.175 879.779 177.485 883.049 177.485C884.579 177.485 886.019 177.695 887.369 178.115C888.749 178.505 889.934 179.015 890.924 179.645C891.944 180.275 892.679 180.905 893.129 181.535L891.239 184.64ZM907.646 203.495C904.166 203.495 901.646 202.805 900.086 201.425C898.526 200.045 897.746 198.05 897.746 195.44V182.21H894.326L893.426 178.745L897.746 178.295V170.195L904.091 171.095L903.866 177.665L908.366 177.215V182.21H903.686L903.236 194.63V195.08C903.236 196.55 903.611 197.72 904.361 198.59C905.141 199.43 906.536 199.85 908.546 199.85L907.646 203.495ZM948.027 203.945V200.3C947.007 201.47 945.687 202.355 944.067 202.955C942.477 203.525 940.872 203.81 939.252 203.81C935.982 203.81 933.117 203.075 930.657 201.605C928.197 200.105 926.277 197.975 924.897 195.215C923.517 192.425 922.827 189.125 922.827 185.315C922.827 181.655 923.517 178.46 924.897 175.73C926.277 172.97 928.197 170.84 930.657 169.34C933.117 167.81 935.967 167.045 939.207 167.045C941.097 167.045 942.882 167.27 944.562 167.72C946.242 168.14 947.727 168.71 949.017 169.43C950.337 170.15 951.327 170.975 951.987 171.905L950.727 179.6H947.757C947.577 177.98 947.247 176.69 946.767 175.73C946.317 174.77 945.807 174.05 945.237 173.57C944.517 172.94 943.617 172.49 942.537 172.22C941.487 171.92 940.272 171.77 938.892 171.77C937.062 171.77 935.397 172.265 933.897 173.255C932.427 174.245 931.257 175.745 930.387 177.755C929.517 179.765 929.082 182.285 929.082 185.315C929.082 188.075 929.562 190.46 930.522 192.47C931.482 194.48 932.772 196.025 934.392 197.105C936.012 198.185 937.812 198.725 939.792 198.725C941.232 198.725 942.597 198.395 943.887 197.735C945.207 197.045 946.287 196.055 947.127 194.765C947.967 193.445 948.387 191.87 948.387 190.04C948.387 189.89 948.387 189.725 948.387 189.545C948.387 189.365 948.372 189.185 948.342 189.005H939.972L939.072 185.135L953.832 183.425L952.932 203.045L948.027 203.945ZM967.745 203.495C965.135 203.495 962.87 202.97 960.95 201.92C959.06 200.84 957.59 199.325 956.54 197.375C955.49 195.425 954.965 193.145 954.965 190.535C954.965 187.895 955.49 185.6 956.54 183.65C957.59 181.7 959.06 180.185 960.95 179.105C962.87 178.025 965.135 177.485 967.745 177.485C970.385 177.485 972.65 178.025 974.54 179.105C976.46 180.185 977.93 181.7 978.95 183.65C979.97 185.6 980.48 187.895 980.48 190.535C980.48 193.145 979.97 195.425 978.95 197.375C977.93 199.325 976.46 200.84 974.54 201.92C972.65 202.97 970.385 203.495 967.745 203.495ZM968.465 199.355C970.355 199.205 971.825 198.41 972.875 196.97C973.925 195.5 974.45 193.625 974.45 191.345C974.45 191.105 974.45 190.88 974.45 190.67C974.45 190.43 974.435 190.19 974.405 189.95C974.195 187.37 973.475 185.345 972.245 183.875C971.045 182.405 969.515 181.67 967.655 181.67C967.535 181.67 967.43 181.685 967.34 181.715C967.25 181.715 967.145 181.715 967.025 181.715C965.195 181.835 963.725 182.63 962.615 184.1C961.535 185.57 960.995 187.46 960.995 189.77C960.995 189.98 960.995 190.205 960.995 190.445C960.995 190.655 961.01 190.88 961.04 191.12C961.25 193.67 961.985 195.695 963.245 197.195C964.505 198.665 966.05 199.4 967.88 199.4C967.97 199.4 968.06 199.4 968.15 199.4C968.27 199.37 968.375 199.355 968.465 199.355ZM999.669 203.63V186.35C999.669 184.85 999.204 183.71 998.274 182.93C997.374 182.12 996.279 181.715 994.989 181.715C993.699 181.715 992.514 182.06 991.434 182.75C990.384 183.44 989.649 184.445 989.229 185.765V203L983.739 203.585L982.839 167.9L989.229 167V180.59C989.829 179.69 990.729 178.955 991.929 178.385C993.159 177.785 994.764 177.485 996.744 177.485C998.484 177.485 1000.03 177.845 1001.38 178.565C1002.76 179.255 1003.85 180.215 1004.66 181.445C1005.47 182.675 1005.88 184.1 1005.88 185.72V186.215L1004.98 203L999.669 203.63ZM1016.87 170.69C1016.87 171.74 1016.5 172.64 1015.75 173.39C1015 174.14 1014.1 174.515 1013.05 174.515C1012 174.515 1011.1 174.14 1010.35 173.39C1009.6 172.64 1009.22 171.74 1009.22 170.69C1009.22 169.64 1009.6 168.74 1010.35 167.99C1011.1 167.24 1012 166.865 1013.05 166.865C1014.1 166.865 1015 167.24 1015.75 167.99C1016.5 168.74 1016.87 169.64 1016.87 170.69ZM1009.85 203.63V177.26L1016.29 178.025L1015.39 203L1009.85 203.63ZM1036.32 199.22C1035.69 200.03 1034.76 200.69 1033.53 201.2C1032.33 201.68 1031.02 201.92 1029.61 201.92C1027.48 201.92 1025.58 201.47 1023.9 200.57C1022.22 199.67 1020.9 198.335 1019.94 196.565C1018.98 194.765 1018.5 192.53 1018.5 189.86C1018.5 187.16 1018.98 184.895 1019.94 183.065C1020.9 181.235 1022.19 179.855 1023.81 178.925C1025.46 177.965 1027.3 177.485 1029.34 177.485C1031.23 177.485 1032.75 177.77 1033.89 178.34C1035.06 178.91 1035.87 179.675 1036.32 180.635V177.395L1042.53 178.295L1041.63 202.1C1041.54 204.32 1041.07 206.18 1040.23 207.68C1039.42 209.18 1038.12 210.29 1036.32 211.01C1034.52 211.76 1032.13 212.135 1029.16 212.135C1028.08 212.135 1026.96 212 1025.79 211.73C1024.65 211.46 1023.58 211.1 1022.59 210.65C1021.6 210.2 1020.79 209.72 1020.16 209.21L1021.06 205.655C1022.11 206.195 1023.3 206.63 1024.62 206.96C1025.97 207.32 1027.42 207.5 1028.98 207.5C1031.65 207.5 1033.54 206.975 1034.65 205.925C1035.76 204.905 1036.32 203.39 1036.32 201.38V199.22ZM1036.36 185.54C1035.88 184.58 1035.18 183.74 1034.25 183.02C1033.32 182.27 1032.19 181.895 1030.87 181.895C1029.73 181.895 1028.65 182.15 1027.63 182.66C1026.64 183.14 1025.83 183.98 1025.2 185.18C1024.57 186.35 1024.26 187.97 1024.26 190.04C1024.26 191.99 1024.56 193.565 1025.16 194.765C1025.76 195.935 1026.57 196.79 1027.59 197.33C1028.61 197.84 1029.72 198.095 1030.92 198.095C1031.94 198.095 1032.85 197.84 1033.66 197.33C1034.47 196.79 1035.12 196.07 1035.6 195.17C1036.11 194.27 1036.36 193.295 1036.36 192.245V185.54ZM1062.76 203.63V186.35C1062.76 184.85 1062.3 183.71 1061.37 182.93C1060.47 182.12 1059.37 181.715 1058.08 181.715C1056.79 181.715 1055.61 182.06 1054.53 182.75C1053.48 183.44 1052.74 184.445 1052.32 185.765V203L1046.83 203.585L1045.93 167.9L1052.32 167V180.59C1052.92 179.69 1053.82 178.955 1055.02 178.385C1056.25 177.785 1057.86 177.485 1059.84 177.485C1061.58 177.485 1063.12 177.845 1064.47 178.565C1065.85 179.255 1066.95 180.215 1067.76 181.445C1068.57 182.675 1068.97 184.1 1068.97 185.72V186.215L1068.07 203L1062.76 203.63ZM1094.46 198.59C1093.59 199.76 1092.66 200.705 1091.67 201.425C1090.71 202.145 1089.6 202.67 1088.34 203C1087.08 203.33 1085.53 203.495 1083.7 203.495C1081.09 203.495 1078.86 202.925 1077 201.785C1075.14 200.615 1073.71 199.055 1072.72 197.105C1071.73 195.125 1071.24 192.92 1071.24 190.49C1071.24 188.03 1071.75 185.825 1072.77 183.875C1073.79 181.895 1075.21 180.335 1077.04 179.195C1078.9 178.055 1081.06 177.485 1083.52 177.485C1085.92 177.485 1087.98 178.04 1089.69 179.15C1091.43 180.23 1092.76 181.79 1093.69 183.83C1094.62 185.84 1095.09 188.24 1095.09 191.03V191.795H1078.8L1077.81 188.285L1088.88 187.385C1088.79 185.795 1088.34 184.505 1087.53 183.515C1086.75 182.495 1085.49 181.985 1083.75 181.985C1081.74 181.985 1080.07 182.735 1078.75 184.235C1077.46 185.705 1076.82 187.805 1076.82 190.535C1076.82 192.485 1077.18 194.105 1077.9 195.395C1078.65 196.655 1079.58 197.6 1080.69 198.23C1081.83 198.83 1082.97 199.13 1084.11 199.13C1086.03 199.13 1087.74 198.815 1089.24 198.185C1090.77 197.525 1091.97 196.64 1092.84 195.53L1094.46 198.59ZM1098.34 203.63L1097.44 177.26L1103.83 178.025V180.59C1104.4 179.87 1104.97 179.285 1105.54 178.835C1106.14 178.385 1106.89 178.055 1107.79 177.845C1108.69 177.635 1109.87 177.515 1111.34 177.485L1112.38 182.975C1111.39 182.795 1110.49 182.705 1109.68 182.705C1106.65 182.705 1104.7 183.92 1103.83 186.35V203L1098.34 203.63ZM1138.15 203.495C1134.67 203.495 1132.15 202.805 1130.59 201.425C1129.03 200.045 1128.25 198.05 1128.25 195.44V182.21H1124.83L1123.93 178.745L1128.25 178.295V170.195L1134.59 171.095L1134.37 177.665L1138.87 177.215V182.21H1134.19L1133.74 194.63V195.08C1133.74 196.55 1134.11 197.72 1134.86 198.59C1135.64 199.43 1137.04 199.85 1139.05 199.85L1138.15 203.495ZM1152.84 203.495C1150.23 203.495 1147.97 202.97 1146.05 201.92C1144.16 200.84 1142.69 199.325 1141.64 197.375C1140.59 195.425 1140.06 193.145 1140.06 190.535C1140.06 187.895 1140.59 185.6 1141.64 183.65C1142.69 181.7 1144.16 180.185 1146.05 179.105C1147.97 178.025 1150.23 177.485 1152.84 177.485C1155.48 177.485 1157.75 178.025 1159.64 179.105C1161.56 180.185 1163.03 181.7 1164.05 183.65C1165.07 185.6 1165.58 187.895 1165.58 190.535C1165.58 193.145 1165.07 195.425 1164.05 197.375C1163.03 199.325 1161.56 200.84 1159.64 201.92C1157.75 202.97 1155.48 203.495 1152.84 203.495ZM1153.56 199.355C1155.45 199.205 1156.92 198.41 1157.97 196.97C1159.02 195.5 1159.55 193.625 1159.55 191.345C1159.55 191.105 1159.55 190.88 1159.55 190.67C1159.55 190.43 1159.53 190.19 1159.5 189.95C1159.29 187.37 1158.57 185.345 1157.34 183.875C1156.14 182.405 1154.61 181.67 1152.75 181.67C1152.63 181.67 1152.53 181.685 1152.44 181.715C1152.35 181.715 1152.24 181.715 1152.12 181.715C1150.29 181.835 1148.82 182.63 1147.71 184.1C1146.63 185.57 1146.09 187.46 1146.09 189.77C1146.09 189.98 1146.09 190.205 1146.09 190.445C1146.09 190.655 1146.11 190.88 1146.14 191.12C1146.35 193.67 1147.08 195.695 1148.34 197.195C1149.6 198.665 1151.15 199.4 1152.98 199.4C1153.07 199.4 1153.16 199.4 1153.25 199.4C1153.37 199.37 1153.47 199.355 1153.56 199.355ZM200.902 258.45C200.152 257.85 199.567 257.28 199.147 256.74C198.757 256.17 198.427 255.495 198.157 254.715C197.617 255.645 196.852 256.395 195.862 256.965C194.872 257.505 193.762 257.895 192.532 258.135C191.332 258.375 190.102 258.495 188.842 258.495C186.292 258.495 184.372 257.91 183.082 256.74C181.792 255.57 181.117 253.935 181.057 251.835V251.655C181.057 249.255 181.822 247.365 183.352 245.985C184.882 244.605 187.012 243.615 189.742 243.015C191.602 242.595 193.162 242.145 194.422 241.665C195.712 241.155 196.357 240.585 196.357 239.955C196.357 237.945 194.782 236.94 191.632 236.94C190.042 236.94 188.497 237.255 186.997 237.885C185.497 238.485 184.267 239.205 183.307 240.045L181.507 236.805C182.557 235.425 183.997 234.36 185.827 233.61C187.687 232.86 189.787 232.485 192.127 232.485C195.607 232.485 198.217 233.13 199.957 234.42C201.727 235.68 202.612 237.675 202.612 240.405V250.62C202.612 251.79 202.837 252.945 203.287 254.085C203.737 255.225 204.382 256.215 205.222 257.055L200.902 258.45ZM187.267 251.205C187.297 252.015 187.537 252.705 187.987 253.275C188.437 253.845 189.112 254.13 190.012 254.13C191.332 254.13 192.622 253.755 193.882 253.005C195.142 252.255 196.012 251.31 196.492 250.17C196.642 249.84 196.732 249.435 196.762 248.955C196.822 248.445 196.852 247.92 196.852 247.38C196.852 246.6 196.822 245.895 196.762 245.265C196.702 244.635 196.672 244.32 196.672 244.32C196.012 244.83 195.157 245.265 194.107 245.625C193.087 245.985 192.007 246.33 190.867 246.66C189.757 246.96 188.872 247.455 188.212 248.145C187.582 248.835 187.267 249.75 187.267 250.89V251.205ZM228.062 258.45C226.232 257.46 225.047 256.185 224.507 254.625C224.087 255.435 223.427 256.125 222.527 256.695C221.627 257.265 220.592 257.7 219.422 258C218.282 258.33 217.112 258.495 215.912 258.495C213.452 258.495 211.487 257.7 210.017 256.11C208.577 254.49 207.782 252.45 207.632 249.99L206.732 232.26L213.122 233.025V248.955C213.122 250.485 213.527 251.64 214.337 252.42C215.147 253.2 216.242 253.59 217.622 253.59C218.912 253.59 220.082 253.245 221.132 252.555C222.212 251.865 222.947 250.86 223.337 249.54V232.26L229.727 233.025L228.962 249.99V250.26C228.962 251.37 229.247 252.525 229.817 253.725C230.417 254.925 231.272 256.035 232.382 257.055L228.062 258.45ZM245.043 258.495C241.563 258.495 239.043 257.805 237.483 256.425C235.923 255.045 235.143 253.05 235.143 250.44V237.21H231.723L230.823 233.745L235.143 233.295V225.195L241.488 226.095L241.263 232.665L245.763 232.215V237.21H241.083L240.633 249.63V250.08C240.633 251.55 241.008 252.72 241.758 253.59C242.538 254.43 243.933 254.85 245.943 254.85L245.043 258.495ZM259.741 258.495C257.131 258.495 254.866 257.97 252.946 256.92C251.056 255.84 249.586 254.325 248.536 252.375C247.486 250.425 246.961 248.145 246.961 245.535C246.961 242.895 247.486 240.6 248.536 238.65C249.586 236.7 251.056 235.185 252.946 234.105C254.866 233.025 257.131 232.485 259.741 232.485C262.381 232.485 264.646 233.025 266.536 234.105C268.456 235.185 269.926 236.7 270.946 238.65C271.966 240.6 272.476 242.895 272.476 245.535C272.476 248.145 271.966 250.425 270.946 252.375C269.926 254.325 268.456 255.84 266.536 256.92C264.646 257.97 262.381 258.495 259.741 258.495ZM260.461 254.355C262.351 254.205 263.821 253.41 264.871 251.97C265.921 250.5 266.446 248.625 266.446 246.345C266.446 246.105 266.446 245.88 266.446 245.67C266.446 245.43 266.431 245.19 266.401 244.95C266.191 242.37 265.471 240.345 264.241 238.875C263.041 237.405 261.511 236.67 259.651 236.67C259.531 236.67 259.426 236.685 259.336 236.715C259.246 236.715 259.141 236.715 259.021 236.715C257.191 236.835 255.721 237.63 254.611 239.1C253.531 240.57 252.991 242.46 252.991 244.77C252.991 244.98 252.991 245.205 252.991 245.445C252.991 245.655 253.006 245.88 253.036 246.12C253.246 248.67 253.981 250.695 255.241 252.195C256.501 253.665 258.046 254.4 259.876 254.4C259.966 254.4 260.056 254.4 260.146 254.4C260.266 254.37 260.371 254.355 260.461 254.355ZM302.824 258.585V241.8C302.824 238.77 301.609 237.255 299.179 237.255C298.429 237.255 297.769 237.51 297.199 238.02C296.629 238.5 296.179 239.115 295.849 239.865C295.549 240.615 295.369 241.38 295.309 242.16L294.409 258L288.964 258.585V241.8C288.964 240.3 288.709 239.175 288.199 238.425C287.689 237.645 286.849 237.255 285.679 237.255C284.659 237.255 283.744 237.585 282.934 238.245C282.124 238.905 281.554 239.76 281.224 240.81V258L275.734 258.585L274.834 232.26L281.224 233.025V235.905C281.734 234.825 282.574 233.985 283.744 233.385C284.914 232.785 286.339 232.485 288.019 232.485C289.609 232.485 290.974 232.845 292.114 233.565C293.284 234.255 294.109 235.2 294.589 236.4C295.099 235.2 295.954 234.255 297.154 233.565C298.354 232.845 299.839 232.485 301.609 232.485C303.079 232.485 304.384 232.8 305.524 233.43C306.664 234.06 307.564 234.945 308.224 236.085C308.884 237.225 309.214 238.575 309.214 240.135V240.72L308.314 258L302.824 258.585ZM331.367 258.45C330.617 257.85 330.032 257.28 329.612 256.74C329.222 256.17 328.892 255.495 328.622 254.715C328.082 255.645 327.317 256.395 326.327 256.965C325.337 257.505 324.227 257.895 322.997 258.135C321.797 258.375 320.567 258.495 319.307 258.495C316.757 258.495 314.837 257.91 313.547 256.74C312.257 255.57 311.582 253.935 311.522 251.835V251.655C311.522 249.255 312.287 247.365 313.817 245.985C315.347 244.605 317.477 243.615 320.207 243.015C322.067 242.595 323.627 242.145 324.887 241.665C326.177 241.155 326.822 240.585 326.822 239.955C326.822 237.945 325.247 236.94 322.097 236.94C320.507 236.94 318.962 237.255 317.462 237.885C315.962 238.485 314.732 239.205 313.772 240.045L311.972 236.805C313.022 235.425 314.462 234.36 316.292 233.61C318.152 232.86 320.252 232.485 322.592 232.485C326.072 232.485 328.682 233.13 330.422 234.42C332.192 235.68 333.077 237.675 333.077 240.405V250.62C333.077 251.79 333.302 252.945 333.752 254.085C334.202 255.225 334.847 256.215 335.687 257.055L331.367 258.45ZM317.732 251.205C317.762 252.015 318.002 252.705 318.452 253.275C318.902 253.845 319.577 254.13 320.477 254.13C321.797 254.13 323.087 253.755 324.347 253.005C325.607 252.255 326.477 251.31 326.957 250.17C327.107 249.84 327.197 249.435 327.227 248.955C327.287 248.445 327.317 247.92 327.317 247.38C327.317 246.6 327.287 245.895 327.227 245.265C327.167 244.635 327.137 244.32 327.137 244.32C326.477 244.83 325.622 245.265 324.572 245.625C323.552 245.985 322.472 246.33 321.332 246.66C320.222 246.96 319.337 247.455 318.677 248.145C318.047 248.835 317.732 249.75 317.732 250.89V251.205ZM348.852 258.495C345.372 258.495 342.852 257.805 341.292 256.425C339.732 255.045 338.952 253.05 338.952 250.44V237.21H335.532L334.632 233.745L338.952 233.295V225.195L345.297 226.095L345.072 232.665L349.572 232.215V237.21H344.892L344.442 249.63V250.08C344.442 251.55 344.817 252.72 345.567 253.59C346.347 254.43 347.742 254.85 349.752 254.85L348.852 258.495ZM373.99 253.59C373.12 254.76 372.19 255.705 371.2 256.425C370.24 257.145 369.13 257.67 367.87 258C366.61 258.33 365.065 258.495 363.235 258.495C360.625 258.495 358.39 257.925 356.53 256.785C354.67 255.615 353.245 254.055 352.255 252.105C351.265 250.125 350.77 247.92 350.77 245.49C350.77 243.03 351.28 240.825 352.3 238.875C353.32 236.895 354.745 235.335 356.575 234.195C358.435 233.055 360.595 232.485 363.055 232.485C365.455 232.485 367.51 233.04 369.22 234.15C370.96 235.23 372.295 236.79 373.225 238.83C374.155 240.84 374.62 243.24 374.62 246.03V246.795H358.33L357.34 243.285L368.41 242.385C368.32 240.795 367.87 239.505 367.06 238.515C366.28 237.495 365.02 236.985 363.28 236.985C361.27 236.985 359.605 237.735 358.285 239.235C356.995 240.705 356.35 242.805 356.35 245.535C356.35 247.485 356.71 249.105 357.43 250.395C358.18 251.655 359.11 252.6 360.22 253.23C361.36 253.83 362.5 254.13 363.64 254.13C365.56 254.13 367.27 253.815 368.77 253.185C370.3 252.525 371.5 251.64 372.37 250.53L373.99 253.59ZM401.396 258.495C397.916 258.495 395.396 257.805 393.836 256.425C392.276 255.045 391.496 253.05 391.496 250.44V237.21H388.076L387.176 233.745L391.496 233.295V225.195L397.841 226.095L397.616 232.665L402.116 232.215V237.21H397.436L396.986 249.63V250.08C396.986 251.55 397.361 252.72 398.111 253.59C398.891 254.43 400.286 254.85 402.296 254.85L401.396 258.495ZM421.495 258.63V241.35C421.495 239.85 421.03 238.71 420.1 237.93C419.2 237.12 418.105 236.715 416.815 236.715C415.525 236.715 414.34 237.06 413.26 237.75C412.21 238.44 411.475 239.445 411.055 240.765V258L405.565 258.585L404.665 222.9L411.055 222V235.59C411.655 234.69 412.555 233.955 413.755 233.385C414.985 232.785 416.59 232.485 418.57 232.485C420.31 232.485 421.855 232.845 423.205 233.565C424.585 234.255 425.68 235.215 426.49 236.445C427.3 237.675 427.705 239.1 427.705 240.72V241.215L426.805 258L421.495 258.63ZM453.19 253.59C452.32 254.76 451.39 255.705 450.4 256.425C449.44 257.145 448.33 257.67 447.07 258C445.81 258.33 444.265 258.495 442.435 258.495C439.825 258.495 437.59 257.925 435.73 256.785C433.87 255.615 432.445 254.055 431.455 252.105C430.465 250.125 429.97 247.92 429.97 245.49C429.97 243.03 430.48 240.825 431.5 238.875C432.52 236.895 433.945 235.335 435.775 234.195C437.635 233.055 439.795 232.485 442.255 232.485C444.655 232.485 446.71 233.04 448.42 234.15C450.16 235.23 451.495 236.79 452.425 238.83C453.355 240.84 453.82 243.24 453.82 246.03V246.795H437.53L436.54 243.285L447.61 242.385C447.52 240.795 447.07 239.505 446.26 238.515C445.48 237.495 444.22 236.985 442.48 236.985C440.47 236.985 438.805 237.735 437.485 239.235C436.195 240.705 435.55 242.805 435.55 245.535C435.55 247.485 435.91 249.105 436.63 250.395C437.38 251.655 438.31 252.6 439.42 253.23C440.56 253.83 441.7 254.13 442.84 254.13C444.76 254.13 446.47 253.815 447.97 253.185C449.5 252.525 450.7 251.64 451.57 250.53L453.19 253.59ZM463.554 225.69C463.554 226.74 463.179 227.64 462.429 228.39C461.679 229.14 460.779 229.515 459.729 229.515C458.679 229.515 457.779 229.14 457.029 228.39C456.279 227.64 455.904 226.74 455.904 225.69C455.904 224.64 456.279 223.74 457.029 222.99C457.779 222.24 458.679 221.865 459.729 221.865C460.779 221.865 461.679 222.24 462.429 222.99C463.179 223.74 463.554 224.64 463.554 225.69ZM456.534 258.63V232.26L462.969 233.025L462.069 258L456.534 258.63ZM467.425 258.63L466.525 232.26L472.915 233.025V235.59C473.485 234.87 474.055 234.285 474.625 233.835C475.225 233.385 475.975 233.055 476.875 232.845C477.775 232.635 478.96 232.515 480.43 232.485L481.465 237.975C480.475 237.795 479.575 237.705 478.765 237.705C475.735 237.705 473.785 238.92 472.915 241.35V258L467.425 258.63ZM514.118 258.45C513.368 257.85 512.783 257.28 512.363 256.74C511.973 256.17 511.643 255.495 511.373 254.715C510.833 255.645 510.068 256.395 509.078 256.965C508.088 257.505 506.978 257.895 505.748 258.135C504.548 258.375 503.318 258.495 502.058 258.495C499.508 258.495 497.588 257.91 496.298 256.74C495.008 255.57 494.333 253.935 494.273 251.835V251.655C494.273 249.255 495.038 247.365 496.568 245.985C498.098 244.605 500.228 243.615 502.958 243.015C504.818 242.595 506.378 242.145 507.638 241.665C508.928 241.155 509.573 240.585 509.573 239.955C509.573 237.945 507.998 236.94 504.848 236.94C503.258 236.94 501.713 237.255 500.213 237.885C498.713 238.485 497.483 239.205 496.523 240.045L494.723 236.805C495.773 235.425 497.213 234.36 499.043 233.61C500.903 232.86 503.003 232.485 505.343 232.485C508.823 232.485 511.433 233.13 513.173 234.42C514.943 235.68 515.828 237.675 515.828 240.405V250.62C515.828 251.79 516.053 252.945 516.503 254.085C516.953 255.225 517.598 256.215 518.438 257.055L514.118 258.45ZM500.483 251.205C500.513 252.015 500.753 252.705 501.203 253.275C501.653 253.845 502.328 254.13 503.228 254.13C504.548 254.13 505.838 253.755 507.098 253.005C508.358 252.255 509.228 251.31 509.708 250.17C509.858 249.84 509.948 249.435 509.978 248.955C510.038 248.445 510.068 247.92 510.068 247.38C510.068 246.6 510.038 245.895 509.978 245.265C509.918 244.635 509.888 244.32 509.888 244.32C509.228 244.83 508.373 245.265 507.323 245.625C506.303 245.985 505.223 246.33 504.083 246.66C502.973 246.96 502.088 247.455 501.428 248.145C500.798 248.835 500.483 249.75 500.483 250.89V251.205ZM520.893 267.54L519.993 232.26L526.383 233.025V235.455C526.923 234.525 527.823 233.805 529.083 233.295C530.343 232.755 531.738 232.485 533.268 232.485C536.568 232.485 539.208 233.595 541.188 235.815C543.168 238.005 544.158 241.23 544.158 245.49C544.158 249.78 543.153 253.02 541.143 255.21C539.133 257.4 536.523 258.495 533.313 258.495C531.663 258.495 530.223 258.24 528.993 257.73C527.763 257.22 526.893 256.62 526.383 255.93V266.46L520.893 267.54ZM526.293 250.8C526.773 251.76 527.478 252.57 528.408 253.23C529.338 253.89 530.463 254.22 531.783 254.22C532.923 254.22 533.988 253.95 534.978 253.41C535.998 252.84 536.808 251.925 537.408 250.665C538.038 249.375 538.353 247.65 538.353 245.49C538.353 243.36 538.053 241.68 537.453 240.45C536.853 239.19 536.058 238.29 535.068 237.75C534.078 237.21 532.968 236.94 531.738 236.94C530.748 236.94 529.833 237.195 528.993 237.705C528.183 238.185 527.523 238.845 527.013 239.685C526.533 240.525 526.293 241.485 526.293 242.565V250.8ZM547.417 267.54L546.517 232.26L552.907 233.025V235.455C553.447 234.525 554.347 233.805 555.607 233.295C556.867 232.755 558.262 232.485 559.792 232.485C563.092 232.485 565.732 233.595 567.712 235.815C569.692 238.005 570.682 241.23 570.682 245.49C570.682 249.78 569.677 253.02 567.667 255.21C565.657 257.4 563.047 258.495 559.837 258.495C558.187 258.495 556.747 258.24 555.517 257.73C554.287 257.22 553.417 256.62 552.907 255.93V266.46L547.417 267.54ZM552.817 250.8C553.297 251.76 554.002 252.57 554.932 253.23C555.862 253.89 556.987 254.22 558.307 254.22C559.447 254.22 560.512 253.95 561.502 253.41C562.522 252.84 563.332 251.925 563.932 250.665C564.562 249.375 564.877 247.65 564.877 245.49C564.877 243.36 564.577 241.68 563.977 240.45C563.377 239.19 562.582 238.29 561.592 237.75C560.602 237.21 559.492 236.94 558.262 236.94C557.272 236.94 556.357 237.195 555.517 237.705C554.707 238.185 554.047 238.845 553.537 239.685C553.057 240.525 552.817 241.485 552.817 242.565V250.8ZM573.4 258.585V222L579.925 222.9L579.025 258L573.4 258.585ZM590.904 225.69C590.904 226.74 590.529 227.64 589.779 228.39C589.029 229.14 588.129 229.515 587.079 229.515C586.029 229.515 585.129 229.14 584.379 228.39C583.629 227.64 583.254 226.74 583.254 225.69C583.254 224.64 583.629 223.74 584.379 222.99C585.129 222.24 586.029 221.865 587.079 221.865C588.129 221.865 589.029 222.24 589.779 222.99C590.529 223.74 590.904 224.64 590.904 225.69ZM583.884 258.63V232.26L590.319 233.025L589.419 258L583.884 258.63ZM615.205 254.4C614.365 255.6 613.09 256.59 611.38 257.37C609.67 258.12 607.735 258.495 605.575 258.495C603.265 258.495 601.12 258.015 599.14 257.055C597.16 256.065 595.555 254.61 594.325 252.69C593.125 250.77 592.525 248.37 592.525 245.49C592.525 242.76 593.095 240.435 594.235 238.515C595.375 236.565 596.92 235.08 598.87 234.06C600.85 233.01 603.085 232.485 605.575 232.485C607.585 232.485 609.415 232.83 611.065 233.52C612.745 234.18 614.05 235.095 614.98 236.265L613.45 239.685C612.7 238.905 611.65 238.26 610.3 237.75C608.95 237.24 607.66 236.985 606.43 236.985C605.02 236.985 603.73 237.315 602.56 237.975C601.39 238.635 600.46 239.61 599.77 240.9C599.11 242.16 598.78 243.69 598.78 245.49C598.78 248.19 599.515 250.275 600.985 251.745C602.455 253.215 604.315 253.95 606.565 253.95C608.035 253.95 609.4 253.71 610.66 253.23C611.95 252.75 612.97 252.09 613.72 251.25L615.205 254.4ZM635.95 258.45C635.2 257.85 634.615 257.28 634.195 256.74C633.805 256.17 633.475 255.495 633.205 254.715C632.665 255.645 631.9 256.395 630.91 256.965C629.92 257.505 628.81 257.895 627.58 258.135C626.38 258.375 625.15 258.495 623.89 258.495C621.34 258.495 619.42 257.91 618.13 256.74C616.84 255.57 616.165 253.935 616.105 251.835V251.655C616.105 249.255 616.87 247.365 618.4 245.985C619.93 244.605 622.06 243.615 624.79 243.015C626.65 242.595 628.21 242.145 629.47 241.665C630.76 241.155 631.405 240.585 631.405 239.955C631.405 237.945 629.83 236.94 626.68 236.94C625.09 236.94 623.545 237.255 622.045 237.885C620.545 238.485 619.315 239.205 618.355 240.045L616.555 236.805C617.605 235.425 619.045 234.36 620.875 233.61C622.735 232.86 624.835 232.485 627.175 232.485C630.655 232.485 633.265 233.13 635.005 234.42C636.775 235.68 637.66 237.675 637.66 240.405V250.62C637.66 251.79 637.885 252.945 638.335 254.085C638.785 255.225 639.43 256.215 640.27 257.055L635.95 258.45ZM622.315 251.205C622.345 252.015 622.585 252.705 623.035 253.275C623.485 253.845 624.16 254.13 625.06 254.13C626.38 254.13 627.67 253.755 628.93 253.005C630.19 252.255 631.06 251.31 631.54 250.17C631.69 249.84 631.78 249.435 631.81 248.955C631.87 248.445 631.9 247.92 631.9 247.38C631.9 246.6 631.87 245.895 631.81 245.265C631.75 244.635 631.72 244.32 631.72 244.32C631.06 244.83 630.205 245.265 629.155 245.625C628.135 245.985 627.055 246.33 625.915 246.66C624.805 246.96 623.92 247.455 623.26 248.145C622.63 248.835 622.315 249.75 622.315 250.89V251.205ZM653.435 258.495C649.955 258.495 647.435 257.805 645.875 256.425C644.315 255.045 643.535 253.05 643.535 250.44V237.21H640.115L639.215 233.745L643.535 233.295V225.195L649.88 226.095L649.655 232.665L654.155 232.215V237.21H649.475L649.025 249.63V250.08C649.025 251.55 649.4 252.72 650.15 253.59C650.93 254.43 652.325 254.85 654.335 254.85L653.435 258.495ZM664.083 225.69C664.083 226.74 663.708 227.64 662.958 228.39C662.208 229.14 661.308 229.515 660.258 229.515C659.208 229.515 658.308 229.14 657.558 228.39C656.808 227.64 656.433 226.74 656.433 225.69C656.433 224.64 656.808 223.74 657.558 222.99C658.308 222.24 659.208 221.865 660.258 221.865C661.308 221.865 662.208 222.24 662.958 222.99C663.708 223.74 664.083 224.64 664.083 225.69ZM657.063 258.63V232.26L663.498 233.025L662.598 258L657.063 258.63ZM678.485 258.495C675.875 258.495 673.61 257.97 671.69 256.92C669.8 255.84 668.33 254.325 667.28 252.375C666.23 250.425 665.705 248.145 665.705 245.535C665.705 242.895 666.23 240.6 667.28 238.65C668.33 236.7 669.8 235.185 671.69 234.105C673.61 233.025 675.875 232.485 678.485 232.485C681.125 232.485 683.39 233.025 685.28 234.105C687.2 235.185 688.67 236.7 689.69 238.65C690.71 240.6 691.22 242.895 691.22 245.535C691.22 248.145 690.71 250.425 689.69 252.375C688.67 254.325 687.2 255.84 685.28 256.92C683.39 257.97 681.125 258.495 678.485 258.495ZM679.205 254.355C681.095 254.205 682.565 253.41 683.615 251.97C684.665 250.5 685.19 248.625 685.19 246.345C685.19 246.105 685.19 245.88 685.19 245.67C685.19 245.43 685.175 245.19 685.145 244.95C684.935 242.37 684.215 240.345 682.985 238.875C681.785 237.405 680.255 236.67 678.395 236.67C678.275 236.67 678.17 236.685 678.08 236.715C677.99 236.715 677.885 236.715 677.765 236.715C675.935 236.835 674.465 237.63 673.355 239.1C672.275 240.57 671.735 242.46 671.735 244.77C671.735 244.98 671.735 245.205 671.735 245.445C671.735 245.655 671.75 245.88 671.78 246.12C671.99 248.67 672.725 250.695 673.985 252.195C675.245 253.665 676.79 254.4 678.62 254.4C678.71 254.4 678.8 254.4 678.89 254.4C679.01 254.37 679.115 254.355 679.205 254.355ZM710.409 258.585V241.8C710.409 240.3 709.944 239.16 709.014 238.38C708.114 237.57 707.019 237.165 705.729 237.165C704.439 237.165 703.254 237.51 702.174 238.2C701.124 238.89 700.389 239.895 699.969 241.215V258L694.479 258.585L693.579 232.26L699.969 233.025V235.95C700.569 234.81 701.454 233.955 702.624 233.385C703.824 232.785 705.459 232.485 707.529 232.485C709.359 232.485 710.964 232.875 712.344 233.655C713.754 234.435 714.834 235.5 715.584 236.85C716.364 238.17 716.709 239.67 716.619 241.35L715.719 258L710.409 258.585ZM737.829 239.64C736.959 238.8 735.744 238.11 734.184 237.57C732.624 237.03 731.079 236.76 729.549 236.76C728.049 236.76 726.984 237.015 726.354 237.525C725.724 238.035 725.409 238.635 725.409 239.325C725.409 239.985 725.784 240.57 726.534 241.08C727.314 241.59 728.679 242.04 730.629 242.43C734.019 243.09 736.494 244.125 738.054 245.535C739.644 246.915 740.439 248.745 740.439 251.025C740.439 253.425 739.524 255.27 737.694 256.56C735.894 257.85 733.224 258.495 729.684 258.495C728.184 258.495 726.684 258.21 725.184 257.64C723.714 257.04 722.394 256.32 721.224 255.48C720.084 254.61 719.214 253.8 718.614 253.05L720.819 250.125C721.389 250.725 722.199 251.325 723.249 251.925C724.329 252.525 725.469 253.02 726.669 253.41C727.899 253.8 728.979 253.995 729.909 253.995C731.439 253.995 732.549 253.755 733.239 253.275C733.959 252.795 734.319 252.12 734.319 251.25C734.319 250.29 733.809 249.51 732.789 248.91C731.799 248.31 730.239 247.785 728.109 247.335C725.019 246.705 722.799 245.73 721.449 244.41C720.099 243.09 719.424 241.515 719.424 239.685C719.424 237.615 720.309 235.905 722.079 234.555C723.849 233.175 726.369 232.485 729.639 232.485C731.169 232.485 732.609 232.695 733.959 233.115C735.339 233.505 736.524 234.015 737.514 234.645C738.534 235.275 739.269 235.905 739.719 236.535L737.829 239.64ZM773.935 258.45C773.185 257.85 772.6 257.28 772.18 256.74C771.79 256.17 771.46 255.495 771.19 254.715C770.65 255.645 769.885 256.395 768.895 256.965C767.905 257.505 766.795 257.895 765.565 258.135C764.365 258.375 763.135 258.495 761.875 258.495C759.325 258.495 757.405 257.91 756.115 256.74C754.825 255.57 754.15 253.935 754.09 251.835V251.655C754.09 249.255 754.855 247.365 756.385 245.985C757.915 244.605 760.045 243.615 762.775 243.015C764.635 242.595 766.195 242.145 767.455 241.665C768.745 241.155 769.39 240.585 769.39 239.955C769.39 237.945 767.815 236.94 764.665 236.94C763.075 236.94 761.53 237.255 760.03 237.885C758.53 238.485 757.3 239.205 756.34 240.045L754.54 236.805C755.59 235.425 757.03 234.36 758.86 233.61C760.72 232.86 762.82 232.485 765.16 232.485C768.64 232.485 771.25 233.13 772.99 234.42C774.76 235.68 775.645 237.675 775.645 240.405V250.62C775.645 251.79 775.87 252.945 776.32 254.085C776.77 255.225 777.415 256.215 778.255 257.055L773.935 258.45ZM760.3 251.205C760.33 252.015 760.57 252.705 761.02 253.275C761.47 253.845 762.145 254.13 763.045 254.13C764.365 254.13 765.655 253.755 766.915 253.005C768.175 252.255 769.045 251.31 769.525 250.17C769.675 249.84 769.765 249.435 769.795 248.955C769.855 248.445 769.885 247.92 769.885 247.38C769.885 246.6 769.855 245.895 769.795 245.265C769.735 244.635 769.705 244.32 769.705 244.32C769.045 244.83 768.19 245.265 767.14 245.625C766.12 245.985 765.04 246.33 763.9 246.66C762.79 246.96 761.905 247.455 761.245 248.145C760.615 248.835 760.3 249.75 760.3 250.89V251.205ZM796.64 258.585V241.8C796.64 240.3 796.175 239.16 795.245 238.38C794.345 237.57 793.25 237.165 791.96 237.165C790.67 237.165 789.485 237.51 788.405 238.2C787.355 238.89 786.62 239.895 786.2 241.215V258L780.71 258.585L779.81 232.26L786.2 233.025V235.95C786.8 234.81 787.685 233.955 788.855 233.385C790.055 232.785 791.69 232.485 793.76 232.485C795.59 232.485 797.195 232.875 798.575 233.655C799.985 234.435 801.065 235.5 801.815 236.85C802.595 238.17 802.94 239.67 802.85 241.35L801.95 258L796.64 258.585ZM827.03 258.45C826.28 257.85 825.695 257.28 825.275 256.74C824.885 256.17 824.555 255.495 824.285 254.715C823.355 256.125 822.2 257.115 820.82 257.685C819.47 258.225 818.06 258.495 816.59 258.495C814.37 258.495 812.39 258.015 810.65 257.055C808.94 256.065 807.59 254.61 806.6 252.69C805.61 250.74 805.115 248.355 805.115 245.535C805.115 242.685 805.64 240.3 806.69 238.38C807.74 236.43 809.12 234.96 810.83 233.97C812.57 232.98 814.46 232.485 816.5 232.485C818.09 232.485 819.425 232.695 820.505 233.115C821.585 233.535 822.5 234.27 823.25 235.32V222L829.64 222.9L828.74 250.62C828.71 251.79 828.92 252.945 829.37 254.085C829.85 255.225 830.51 256.215 831.35 257.055L827.03 258.45ZM823.43 240.495C822.95 239.535 822.245 238.695 821.315 237.975C820.385 237.225 819.26 236.85 817.94 236.85C816.8 236.85 815.69 237.135 814.61 237.705C813.53 238.245 812.63 239.16 811.91 240.45C811.22 241.71 810.875 243.42 810.875 245.58C810.875 247.71 811.205 249.405 811.865 250.665C812.555 251.895 813.44 252.78 814.52 253.32C815.63 253.86 816.785 254.13 817.985 254.13C819.005 254.13 819.92 253.875 820.73 253.365C821.54 252.825 822.185 252.105 822.665 251.205C823.175 250.305 823.43 249.33 823.43 248.28V240.495ZM846.469 258.585V222L852.994 222.9L852.094 258L846.469 258.585ZM875.088 258.45C874.338 257.85 873.753 257.28 873.333 256.74C872.943 256.17 872.613 255.495 872.343 254.715C871.803 255.645 871.038 256.395 870.048 256.965C869.058 257.505 867.948 257.895 866.718 258.135C865.518 258.375 864.288 258.495 863.028 258.495C860.478 258.495 858.558 257.91 857.268 256.74C855.978 255.57 855.303 253.935 855.243 251.835V251.655C855.243 249.255 856.008 247.365 857.538 245.985C859.068 244.605 861.198 243.615 863.928 243.015C865.788 242.595 867.348 242.145 868.608 241.665C869.898 241.155 870.543 240.585 870.543 239.955C870.543 237.945 868.968 236.94 865.818 236.94C864.228 236.94 862.683 237.255 861.183 237.885C859.683 238.485 858.453 239.205 857.493 240.045L855.693 236.805C856.743 235.425 858.183 234.36 860.013 233.61C861.873 232.86 863.973 232.485 866.313 232.485C869.793 232.485 872.403 233.13 874.143 234.42C875.913 235.68 876.798 237.675 876.798 240.405V250.62C876.798 251.79 877.023 252.945 877.473 254.085C877.923 255.225 878.568 256.215 879.408 257.055L875.088 258.45ZM861.453 251.205C861.483 252.015 861.723 252.705 862.173 253.275C862.623 253.845 863.298 254.13 864.198 254.13C865.518 254.13 866.808 253.755 868.068 253.005C869.328 252.255 870.198 251.31 870.678 250.17C870.828 249.84 870.918 249.435 870.948 248.955C871.008 248.445 871.038 247.92 871.038 247.38C871.038 246.6 871.008 245.895 870.948 245.265C870.888 244.635 870.858 244.32 870.858 244.32C870.198 244.83 869.343 245.265 868.293 245.625C867.273 245.985 866.193 246.33 865.053 246.66C863.943 246.96 863.058 247.455 862.398 248.145C861.768 248.835 861.453 249.75 861.453 250.89V251.205ZM897.793 258.585V241.8C897.793 240.3 897.328 239.16 896.398 238.38C895.498 237.57 894.403 237.165 893.113 237.165C891.823 237.165 890.638 237.51 889.558 238.2C888.508 238.89 887.773 239.895 887.353 241.215V258L881.863 258.585L880.963 232.26L887.353 233.025V235.95C887.953 234.81 888.838 233.955 890.008 233.385C891.208 232.785 892.843 232.485 894.913 232.485C896.743 232.485 898.348 232.875 899.728 233.655C901.138 234.435 902.218 235.5 902.968 236.85C903.748 238.17 904.093 239.67 904.003 241.35L903.103 258L897.793 258.585ZM928.184 258.45C927.434 257.85 926.849 257.28 926.429 256.74C926.039 256.17 925.709 255.495 925.439 254.715C924.509 256.125 923.354 257.115 921.974 257.685C920.624 258.225 919.214 258.495 917.744 258.495C915.524 258.495 913.544 258.015 911.804 257.055C910.094 256.065 908.744 254.61 907.754 252.69C906.764 250.74 906.269 248.355 906.269 245.535C906.269 242.685 906.794 240.3 907.844 238.38C908.894 236.43 910.274 234.96 911.984 233.97C913.724 232.98 915.614 232.485 917.654 232.485C919.244 232.485 920.579 232.695 921.659 233.115C922.739 233.535 923.654 234.27 924.404 235.32V222L930.794 222.9L929.894 250.62C929.864 251.79 930.074 252.945 930.524 254.085C931.004 255.225 931.664 256.215 932.504 257.055L928.184 258.45ZM924.584 240.495C924.104 239.535 923.399 238.695 922.469 237.975C921.539 237.225 920.414 236.85 919.094 236.85C917.954 236.85 916.844 237.135 915.764 237.705C914.684 238.245 913.784 239.16 913.064 240.45C912.374 241.71 912.029 243.42 912.029 245.58C912.029 247.71 912.359 249.405 913.019 250.665C913.709 251.895 914.594 252.78 915.674 253.32C916.784 253.86 917.939 254.13 919.139 254.13C920.159 254.13 921.074 253.875 921.884 253.365C922.694 252.825 923.339 252.105 923.819 251.205C924.329 250.305 924.584 249.33 924.584 248.28V240.495ZM958.873 258.495C955.393 258.495 952.873 257.805 951.313 256.425C949.753 255.045 948.973 253.05 948.973 250.44V237.21H945.553L944.653 233.745L948.973 233.295V225.195L955.318 226.095L955.093 232.665L959.593 232.215V237.21H954.913L954.463 249.63V250.08C954.463 251.55 954.838 252.72 955.588 253.59C956.368 254.43 957.763 254.85 959.773 254.85L958.873 258.495ZM978.971 258.63V241.35C978.971 239.85 978.506 238.71 977.576 237.93C976.676 237.12 975.581 236.715 974.291 236.715C973.001 236.715 971.816 237.06 970.736 237.75C969.686 238.44 968.951 239.445 968.531 240.765V258L963.041 258.585L962.141 222.9L968.531 222V235.59C969.131 234.69 970.031 233.955 971.231 233.385C972.461 232.785 974.066 232.485 976.046 232.485C977.786 232.485 979.331 232.845 980.681 233.565C982.061 234.255 983.156 235.215 983.966 236.445C984.776 237.675 985.181 239.1 985.181 240.72V241.215L984.281 258L978.971 258.63ZM1010.67 253.59C1009.8 254.76 1008.87 255.705 1007.88 256.425C1006.92 257.145 1005.81 257.67 1004.55 258C1003.29 258.33 1001.74 258.495 999.911 258.495C997.301 258.495 995.066 257.925 993.206 256.785C991.346 255.615 989.921 254.055 988.931 252.105C987.941 250.125 987.446 247.92 987.446 245.49C987.446 243.03 987.956 240.825 988.976 238.875C989.996 236.895 991.421 235.335 993.251 234.195C995.111 233.055 997.271 232.485 999.731 232.485C1002.13 232.485 1004.19 233.04 1005.9 234.15C1007.64 235.23 1008.97 236.79 1009.9 238.83C1010.83 240.84 1011.3 243.24 1011.3 246.03V246.795H995.006L994.016 243.285L1005.09 242.385C1005 240.795 1004.55 239.505 1003.74 238.515C1002.96 237.495 1001.7 236.985 999.956 236.985C997.946 236.985 996.281 237.735 994.961 239.235C993.671 240.705 993.026 242.805 993.026 245.535C993.026 247.485 993.386 249.105 994.106 250.395C994.856 251.655 995.786 252.6 996.896 253.23C998.036 253.83 999.176 254.13 1000.32 254.13C1002.24 254.13 1003.95 253.815 1005.45 253.185C1006.98 252.525 1008.18 251.64 1009.05 250.53L1010.67 253.59ZM1027.36 267.54L1026.46 232.26L1032.85 233.025V235.455C1033.39 234.525 1034.29 233.805 1035.55 233.295C1036.81 232.755 1038.21 232.485 1039.74 232.485C1043.04 232.485 1045.68 233.595 1047.66 235.815C1049.64 238.005 1050.63 241.23 1050.63 245.49C1050.63 249.78 1049.62 253.02 1047.61 255.21C1045.6 257.4 1042.99 258.495 1039.78 258.495C1038.13 258.495 1036.69 258.24 1035.46 257.73C1034.23 257.22 1033.36 256.62 1032.85 255.93V266.46L1027.36 267.54ZM1032.76 250.8C1033.24 251.76 1033.95 252.57 1034.88 253.23C1035.81 253.89 1036.93 254.22 1038.25 254.22C1039.39 254.22 1040.46 253.95 1041.45 253.41C1042.47 252.84 1043.28 251.925 1043.88 250.665C1044.51 249.375 1044.82 247.65 1044.82 245.49C1044.82 243.36 1044.52 241.68 1043.92 240.45C1043.32 239.19 1042.53 238.29 1041.54 237.75C1040.55 237.21 1039.44 236.94 1038.21 236.94C1037.22 236.94 1036.3 237.195 1035.46 237.705C1034.65 238.185 1033.99 238.845 1033.48 239.685C1033 240.525 1032.76 241.485 1032.76 242.565V250.8ZM1074.86 253.59C1073.99 254.76 1073.06 255.705 1072.07 256.425C1071.11 257.145 1070 257.67 1068.74 258C1067.48 258.33 1065.93 258.495 1064.1 258.495C1061.49 258.495 1059.26 257.925 1057.4 256.785C1055.54 255.615 1054.11 254.055 1053.12 252.105C1052.13 250.125 1051.64 247.92 1051.64 245.49C1051.64 243.03 1052.15 240.825 1053.17 238.875C1054.19 236.895 1055.61 235.335 1057.44 234.195C1059.3 233.055 1061.46 232.485 1063.92 232.485C1066.32 232.485 1068.38 233.04 1070.09 234.15C1071.83 235.23 1073.16 236.79 1074.09 238.83C1075.02 240.84 1075.49 243.24 1075.49 246.03V246.795H1059.2L1058.21 243.285L1069.28 242.385C1069.19 240.795 1068.74 239.505 1067.93 238.515C1067.15 237.495 1065.89 236.985 1064.15 236.985C1062.14 236.985 1060.47 237.735 1059.15 239.235C1057.86 240.705 1057.22 242.805 1057.22 245.535C1057.22 247.485 1057.58 249.105 1058.3 250.395C1059.05 251.655 1059.98 252.6 1061.09 253.23C1062.23 253.83 1063.37 254.13 1064.51 254.13C1066.43 254.13 1068.14 253.815 1069.64 253.185C1071.17 252.525 1072.37 251.64 1073.24 250.53L1074.86 253.59ZM1078.74 258.63L1077.84 232.26L1084.23 233.025V235.59C1084.8 234.87 1085.37 234.285 1085.94 233.835C1086.54 233.385 1087.29 233.055 1088.19 232.845C1089.09 232.635 1090.27 232.515 1091.74 232.485L1092.78 237.975C1091.79 237.795 1090.89 237.705 1090.08 237.705C1087.05 237.705 1085.1 238.92 1084.23 241.35V258L1078.74 258.63ZM1096.19 258.585L1095.52 237.21H1092.19L1091.29 233.745L1095.38 233.34L1095.29 230.37V229.875C1095.29 226.965 1096.13 224.94 1097.81 223.8C1099.52 222.66 1102.24 222.075 1105.96 222.045L1106.77 225.735C1104.76 225.735 1103.38 226.065 1102.63 226.725C1101.88 227.385 1101.5 228.645 1101.5 230.505V232.71L1106.23 232.215V237.21H1101.5V258L1096.19 258.585ZM1129.29 253.59C1128.42 254.76 1127.49 255.705 1126.5 256.425C1125.54 257.145 1124.43 257.67 1123.17 258C1121.91 258.33 1120.37 258.495 1118.54 258.495C1115.93 258.495 1113.69 257.925 1111.83 256.785C1109.97 255.615 1108.55 254.055 1107.56 252.105C1106.57 250.125 1106.07 247.92 1106.07 245.49C1106.07 243.03 1106.58 240.825 1107.6 238.875C1108.62 236.895 1110.05 235.335 1111.88 234.195C1113.74 233.055 1115.9 232.485 1118.36 232.485C1120.76 232.485 1122.81 233.04 1124.52 234.15C1126.26 235.23 1127.6 236.79 1128.53 238.83C1129.46 240.84 1129.92 243.24 1129.92 246.03V246.795H1113.63L1112.64 243.285L1123.71 242.385C1123.62 240.795 1123.17 239.505 1122.36 238.515C1121.58 237.495 1120.32 236.985 1118.58 236.985C1116.57 236.985 1114.91 237.735 1113.59 239.235C1112.3 240.705 1111.65 242.805 1111.65 245.535C1111.65 247.485 1112.01 249.105 1112.73 250.395C1113.48 251.655 1114.41 252.6 1115.52 253.23C1116.66 253.83 1117.8 254.13 1118.94 254.13C1120.86 254.13 1122.57 253.815 1124.07 253.185C1125.6 252.525 1126.8 251.64 1127.67 250.53L1129.29 253.59ZM1153.6 254.4C1152.76 255.6 1151.49 256.59 1149.78 257.37C1148.07 258.12 1146.13 258.495 1143.97 258.495C1141.66 258.495 1139.52 258.015 1137.54 257.055C1135.56 256.065 1133.95 254.61 1132.72 252.69C1131.52 250.77 1130.92 248.37 1130.92 245.49C1130.92 242.76 1131.49 240.435 1132.63 238.515C1133.77 236.565 1135.32 235.08 1137.27 234.06C1139.25 233.01 1141.48 232.485 1143.97 232.485C1145.98 232.485 1147.81 232.83 1149.46 233.52C1151.14 234.18 1152.45 235.095 1153.38 236.265L1151.85 239.685C1151.1 238.905 1150.05 238.26 1148.7 237.75C1147.35 237.24 1146.06 236.985 1144.83 236.985C1143.42 236.985 1142.13 237.315 1140.96 237.975C1139.79 238.635 1138.86 239.61 1138.17 240.9C1137.51 242.16 1137.18 243.69 1137.18 245.49C1137.18 248.19 1137.91 250.275 1139.38 251.745C1140.85 253.215 1142.71 253.95 1144.96 253.95C1146.43 253.95 1147.8 253.71 1149.06 253.23C1150.35 252.75 1151.37 252.09 1152.12 251.25L1153.6 254.4ZM1167.46 258.495C1163.98 258.495 1161.46 257.805 1159.9 256.425C1158.34 255.045 1157.56 253.05 1157.56 250.44V237.21H1154.14L1153.24 233.745L1157.56 233.295V225.195L1163.91 226.095L1163.68 232.665L1168.18 232.215V237.21H1163.5L1163.05 249.63V250.08C1163.05 251.55 1163.43 252.72 1164.18 253.59C1164.96 254.43 1166.35 254.85 1168.36 254.85L1167.46 258.495ZM1191.33 225.69C1191.33 226.74 1190.95 227.64 1190.2 228.39C1189.45 229.14 1188.55 229.515 1187.5 229.515C1186.45 229.515 1185.55 229.14 1184.8 228.39C1184.05 227.64 1183.68 226.74 1183.68 225.69C1183.68 224.64 1184.05 223.74 1184.8 222.99C1185.55 222.24 1186.45 221.865 1187.5 221.865C1188.55 221.865 1189.45 222.24 1190.2 222.99C1190.95 223.74 1191.33 224.64 1191.33 225.69ZM1178.68 263.22C1180.66 262.98 1182.24 262.29 1183.41 261.15C1184.61 260.01 1185.21 258.57 1185.21 256.83V256.56L1184.31 232.26L1190.7 233.025V258.09C1190.7 261 1189.71 263.175 1187.73 264.615C1185.78 266.055 1183.2 266.85 1179.99 267L1178.68 263.22ZM1205.85 258.495C1203.24 258.495 1200.98 257.97 1199.06 256.92C1197.17 255.84 1195.7 254.325 1194.65 252.375C1193.6 250.425 1193.07 248.145 1193.07 245.535C1193.07 242.895 1193.6 240.6 1194.65 238.65C1195.7 236.7 1197.17 235.185 1199.06 234.105C1200.98 233.025 1203.24 232.485 1205.85 232.485C1208.49 232.485 1210.76 233.025 1212.65 234.105C1214.57 235.185 1216.04 236.7 1217.06 238.65C1218.08 240.6 1218.59 242.895 1218.59 245.535C1218.59 248.145 1218.08 250.425 1217.06 252.375C1216.04 254.325 1214.57 255.84 1212.65 256.92C1210.76 257.97 1208.49 258.495 1205.85 258.495ZM1206.57 254.355C1208.46 254.205 1209.93 253.41 1210.98 251.97C1212.03 250.5 1212.56 248.625 1212.56 246.345C1212.56 246.105 1212.56 245.88 1212.56 245.67C1212.56 245.43 1212.54 245.19 1212.51 244.95C1212.3 242.37 1211.58 240.345 1210.35 238.875C1209.15 237.405 1207.62 236.67 1205.76 236.67C1205.64 236.67 1205.54 236.685 1205.45 236.715C1205.36 236.715 1205.25 236.715 1205.13 236.715C1203.3 236.835 1201.83 237.63 1200.72 239.1C1199.64 240.57 1199.1 242.46 1199.1 244.77C1199.1 244.98 1199.1 245.205 1199.1 245.445C1199.1 245.655 1199.12 245.88 1199.15 246.12C1199.36 248.67 1200.09 250.695 1201.35 252.195C1202.61 253.665 1204.16 254.4 1205.99 254.4C1206.08 254.4 1206.17 254.4 1206.26 254.4C1206.38 254.37 1206.48 254.355 1206.57 254.355ZM1221.85 258.45L1220.95 222L1227.34 222.9V235.455C1227.88 234.525 1228.78 233.805 1230.04 233.295C1231.3 232.755 1232.69 232.485 1234.22 232.485C1237.52 232.485 1240.16 233.595 1242.14 235.815C1244.12 238.005 1245.11 241.23 1245.11 245.49C1245.11 249.78 1244.11 253.02 1242.1 255.21C1240.09 257.4 1237.48 258.495 1234.27 258.495C1232.62 258.495 1231.09 258.195 1229.68 257.595C1228.3 256.965 1227.31 256.14 1226.71 255.12L1226.26 257.415L1221.85 258.45ZM1227.2 250.8C1227.68 251.76 1228.39 252.57 1229.32 253.23C1230.25 253.89 1231.37 254.22 1232.69 254.22C1233.83 254.22 1234.9 253.95 1235.89 253.41C1236.91 252.84 1237.73 251.925 1238.36 250.665C1238.99 249.375 1239.31 247.65 1239.31 245.49C1239.31 243.36 1239.01 241.68 1238.41 240.45C1237.81 239.19 1237 238.29 1235.98 237.75C1234.99 237.21 1233.88 236.94 1232.65 236.94C1231.66 236.94 1230.74 237.195 1229.9 237.705C1229.09 238.185 1228.43 238.845 1227.92 239.685C1227.44 240.525 1227.2 241.485 1227.2 242.565V250.8ZM1256.11 254.625C1256.11 255.735 1255.72 256.68 1254.94 257.46C1254.16 258.21 1253.22 258.585 1252.11 258.585C1251 258.585 1250.05 258.21 1249.27 257.46C1248.49 256.68 1248.1 255.735 1248.1 254.625C1248.1 253.515 1248.49 252.57 1249.27 251.79C1250.05 251.01 1251 250.62 1252.11 250.62C1253.22 250.62 1254.16 251.01 1254.94 251.79C1255.72 252.57 1256.11 253.515 1256.11 254.625Z" fill="white"/>
</svg>
